<svg id="Camada_1" data-name="Camada 1" xmlns="http://www.w3.org/2000/svg" viewBox="0 0 1030.35 307.35"><defs><style>.cls-1{fill:#1d1d1b;}.cls-2{fill:#3c3c3b;}.cls-3{fill:#1f4f79;}</style></defs><title>Logo1</title><rect class="cls-1" x="178.5" y="18.34" width="14.17" height="3.91"/><path d="M233.64,326.6c.33,9.9-7.37,22.43-22,21.85C200,348,190.86,339,190.93,327.24c.07-12,9.19-21,21.26-21C224.57,306.26,233.72,314.94,233.64,326.6Z" transform="translate(9.13 -251.43)"/><path d="M267.37,322.17l17.22-1c.19,1.13.37,2.24.58,3.54h-38c-.26-8.85-3.11-16.53-9.4-22.84s-13.91-9.27-22.84-9.4V272.19C244.47,276.38,261.69,293.15,267.37,322.17Z" transform="translate(9.13 -251.43)"/><path d="M285,334.39l-18.26-.74c-5.77,28.23-23.13,44.33-52,48.58v-19.6c16.65-.53,30.78-13.1,32.43-31.74,1.69,0,3.41,0,5.12,0,10-.16,19.93-.36,29.89-.46C285.36,330.4,285.59,330.83,285,334.39Z" transform="translate(9.13 -251.43)"/><path d="M157.17,331.74c-.9.44-1.59,1.07-2.31,1.1-5.15.2-10.31.3-15.47.34-.46,0-1.37-.81-1.31-.95.25-.64.69-1.59,1.21-1.69a23.82,23.82,0,0,1,5-.44c9.37.09,18.74.24,28.11.37,1.38,0,2.75,0,4.24,0,3,18.51,13.23,29.81,32.6,32.2v19.57C179.35,378.15,162.88,360.36,157.17,331.74Z" transform="translate(9.13 -251.43)"/><path d="M273.09,371.22v14.21H259.6V371.22Z" transform="translate(9.13 -251.43)"/><path d="M164.8,385.52H151.35V371.21h14.1C165.24,376,165,380.67,164.8,385.52Z" transform="translate(9.13 -251.43)"/><path d="M273.06,269v13.38H259.48V269Z" transform="translate(9.13 -251.43)"/><path d="M164.7,282.08H152.18v-13.2H164.7Z" transform="translate(9.13 -251.43)"/><path d="M255,273.84H233.72V270H255Z" transform="translate(9.13 -251.43)"/><path d="M269.64,289.43h2.41a8.32,8.32,0,0,1,.89.13v21.95l-3.3-.18Z" transform="translate(9.13 -251.43)"/><path d="M272.9,343v21.23l-3.47-.22c0-.87-.1-1.71-.11-2.55q0-7.83,0-15.66C269.34,342.85,269.41,342.81,272.9,343Z" transform="translate(9.13 -251.43)"/><path d="M189,381.45V385h-19.6v-3.52Z" transform="translate(9.13 -251.43)"/><path d="M235.87,384.87v-3.53H253.6c-.13,1.34-.25,2.45-.35,3.53Z" transform="translate(9.13 -251.43)"/><path d="M156,363.69l-3.72.28V353.48c0-1.31,0-2.61,0-3.92,0-3.21.6-3.55,3.73-2.37Z" transform="translate(9.13 -251.43)"/><rect class="cls-1" x="146.81" y="294.65" width="14.17" height="3.91" transform="translate(459.63 -108.73) rotate(90)"/><path d="M199.41,274.2c-23.38,6.39-36.58,21.94-41.47,44.87-.13.65-.27,1.31-.39,2a3.91,3.91,0,0,1-.35,1.08H138.51v2.53h38c.29-18.49,16.85-32.81,32.64-32.48V272.12C205.77,272.83,202.54,273.34,199.41,274.2Z" transform="translate(9.13 -251.43)"/><rect class="cls-2" x="372.42" y="23.3" width="14.17" height="3.91"/><path class="cls-2" d="M427.56,331.57c.32,9.89-7.37,22.42-22,21.84-11.66-.46-20.75-9.43-20.68-21.21.07-12,9.19-21,21.25-21C418.49,311.22,427.63,319.9,427.56,331.57Z" transform="translate(9.13 -251.43)"/><path class="cls-2" d="M461.29,327.13l17.22-1c.18,1.13.37,2.24.58,3.54h-38c-.25-8.85-3.1-16.53-9.39-22.84s-13.92-9.27-22.84-9.4V277.15C438.39,281.34,455.6,298.11,461.29,327.13Z" transform="translate(9.13 -251.43)"/><path class="cls-2" d="M479,339.35l-18.26-.74c-5.77,28.23-23.13,44.33-52,48.59V367.59c16.64-.52,30.77-13.1,32.42-31.74,1.7,0,3.41,0,5.13,0,10-.15,19.93-.36,29.89-.46C479.28,335.36,479.51,335.79,479,339.35Z" transform="translate(9.13 -251.43)"/><path class="cls-2" d="M351.09,336.7c-.9.45-1.59,1.07-2.31,1.1-5.15.2-10.31.3-15.47.34a2.14,2.14,0,0,1-1.32-.95c.26-.64.7-1.58,1.22-1.69a23.78,23.78,0,0,1,5-.44c9.38.09,18.75.24,28.12.37,1.37,0,2.75,0,4.24,0,3,18.51,13.23,29.82,32.59,32.2V387.2C373.27,383.11,356.8,365.32,351.09,336.7Z" transform="translate(9.13 -251.43)"/><path class="cls-2" d="M467,376.18v14.21H453.52V376.18Z" transform="translate(9.13 -251.43)"/><path class="cls-2" d="M358.61,287H346.1v-13.2h12.51Z" transform="translate(9.13 -251.43)"/><path class="cls-2" d="M466.82,348v21.23l-3.47-.22c0-.87-.11-1.71-.11-2.55,0-5.22,0-10.44,0-15.66C463.26,347.81,463.33,347.77,466.82,348Z" transform="translate(9.13 -251.43)"/><path class="cls-2" d="M429.79,389.83V386.3h17.73c-.14,1.34-.25,2.45-.36,3.53Z" transform="translate(9.13 -251.43)"/><rect class="cls-2" x="340.73" y="299.61" width="14.17" height="3.91" transform="translate(658.51 -297.68) rotate(90)"/><path class="cls-2" d="M393.33,279.16c-23.39,6.39-36.58,21.94-41.47,44.87-.14.65-.27,1.31-.39,2a3.91,3.91,0,0,1-.35,1.08h-18.7v2.54h38c.28-18.5,16.85-32.82,32.64-32.49V277.08C399.69,277.79,396.46,278.31,393.33,279.16Z" transform="translate(9.13 -251.43)"/><rect class="cls-2" x="31.3" y="0.89" width="14.17" height="3.91"/><path class="cls-2" d="M86.44,309.16c.33,9.89-7.37,22.43-22,21.84-11.66-.46-20.75-9.43-20.68-21.21.07-12,9.19-21,21.25-21C77.37,288.81,86.51,297.49,86.44,309.16Z" transform="translate(9.13 -251.43)"/><path class="cls-2" d="M120.17,304.72l17.22-1c.19,1.13.37,2.24.58,3.54H100c-.25-8.85-3.1-16.53-9.39-22.84s-13.92-9.27-22.84-9.4V254.74C97.27,258.93,114.48,275.7,120.17,304.72Z" transform="translate(9.13 -251.43)"/><path class="cls-2" d="M137.83,316.94l-18.26-.73c-5.77,28.22-23.13,44.32-52,48.58v-19.6c16.64-.53,30.77-13.11,32.42-31.75,1.7,0,3.42,0,5.13,0,10-.15,19.93-.36,29.89-.46C138.16,313,138.39,313.38,137.83,316.94Z" transform="translate(9.13 -251.43)"/><path class="cls-2" d="M10,314.29c-.9.45-1.59,1.07-2.31,1.1-5.15.2-10.31.3-15.47.34-.46,0-1.37-.81-1.31-1,.25-.64.69-1.58,1.21-1.69a23.82,23.82,0,0,1,5-.44c9.37.09,18.74.24,28.11.37,1.37,0,2.75,0,4.24,0,3,18.5,13.23,29.81,32.6,32.19v19.57C32.15,360.7,15.68,342.91,10,314.29Z" transform="translate(9.13 -251.43)"/><path class="cls-2" d="M125.89,353.77V368H112.4V353.77Z" transform="translate(9.13 -251.43)"/><path class="cls-2" d="M17.49,264.63H5v-13.2H17.49Z" transform="translate(9.13 -251.43)"/><path class="cls-2" d="M125.7,325.58v21.23l-3.47-.22c0-.86-.11-1.71-.11-2.55,0-5.22,0-10.44,0-15.66C122.14,325.4,122.21,325.36,125.7,325.58Z" transform="translate(9.13 -251.43)"/><path class="cls-2" d="M88.67,367.42v-3.53H106.4c-.13,1.34-.25,2.45-.36,3.53Z" transform="translate(9.13 -251.43)"/><rect class="cls-2" x="-0.39" y="277.2" width="14.17" height="3.91" transform="translate(294.98 21.03) rotate(90)"/><path class="cls-2" d="M52.21,256.75c-23.39,6.39-36.58,21.95-41.47,44.87-.14.66-.27,1.31-.39,2a3.91,3.91,0,0,1-.35,1.08H-8.7v2.54h38c.28-18.5,16.85-32.82,32.64-32.49V254.67C58.57,255.38,55.34,255.9,52.21,256.75Z" transform="translate(9.13 -251.43)"/><rect class="cls-3" x="330.12" y="185.66" width="14.17" height="3.91"/><path class="cls-3" d="M385.26,493.93c.33,9.89-7.37,22.43-22,21.85-11.66-.47-20.75-9.44-20.68-21.22.07-12,9.19-21,21.26-21C376.19,473.58,385.34,482.27,385.26,493.93Z" transform="translate(9.13 -251.43)"/><path class="cls-3" d="M419,489.49l17.22-1c.19,1.12.37,2.23.58,3.53h-38c-.26-8.85-3.11-16.53-9.4-22.84s-13.91-9.27-22.84-9.4V439.52C396.09,443.71,413.31,460.48,419,489.49Z" transform="translate(9.13 -251.43)"/><path class="cls-3" d="M436.65,501.71,418.39,501c-5.77,28.22-23.13,44.33-52,48.58V530c16.65-.53,30.78-13.11,32.43-31.74,1.69,0,3.41,0,5.12,0,10-.15,19.93-.35,29.89-.45C437,497.72,437.21,498.15,436.65,501.71Z" transform="translate(9.13 -251.43)"/><path class="cls-3" d="M308.81,497.58c12.92.16,15.2.22,15.2.22h4.24c3,18.5,13.23,29.81,32.6,32.19v19.57c-29.88-4.09-46.34-20.45-52-49.08-1.53.19-3.81-1.48-4.53-1.45" transform="translate(9.13 -251.43)"/><path class="cls-3" d="M291,500.51" transform="translate(9.13 -251.43)"/><path class="cls-3" d="M424.71,538.54v14.21H411.22V538.54Z" transform="translate(9.13 -251.43)"/><path class="cls-3" d="M316.32,449.4H303.8V436.21h12.52Z" transform="translate(9.13 -251.43)"/><path class="cls-3" d="M424.52,510.35v21.24l-3.47-.22c0-.87-.1-1.71-.11-2.56q0-7.83,0-15.66C421,510.18,421,510.13,424.52,510.35Z" transform="translate(9.13 -251.43)"/><path class="cls-3" d="M387.49,552.19v-3.53h17.73c-.13,1.35-.25,2.46-.35,3.53Z" transform="translate(9.13 -251.43)"/><rect class="cls-3" x="298.43" y="461.97" width="14.17" height="3.91" transform="translate(778.58 -93.02) rotate(90)"/><path class="cls-3" d="M351,441.53c-23.38,6.38-36.58,21.94-41.47,44.87-.13.65-.27,1.3-.39,2a4,4,0,0,1-.35,1.08H290.13V492h38c.29-18.49,16.85-32.82,32.64-32.48V439.44S354.16,440.67,351,441.53Z" transform="translate(9.13 -251.43)"/><rect class="cls-3" x="299.25" y="246.14" width="18.68" height="2.91"/><rect class="cls-3" x="914.45" y="191.69" width="14.17" height="3.91"/><path class="cls-3" d="M969.59,500c.33,9.89-7.36,22.43-22,21.84-11.66-.46-20.75-9.43-20.68-21.21.08-12,9.19-21,21.26-21C960.52,479.61,969.67,488.29,969.59,500Z" transform="translate(9.13 -251.43)"/><path class="cls-3" d="M1003.32,495.52l17.22-1c.19,1.13.37,2.24.58,3.54h-38c-.26-8.85-3.11-16.53-9.39-22.84s-13.92-9.27-22.85-9.4V445.54C980.42,449.73,997.64,466.5,1003.32,495.52Z" transform="translate(9.13 -251.43)"/><path class="cls-3" d="M1021,507.74l-18.26-.73c-5.77,28.22-23.13,44.32-52,48.58V536c16.65-.53,30.78-13.11,32.43-31.75,1.69,0,3.41,0,5.13,0,10-.15,19.92-.36,29.88-.46C1021.31,503.75,1021.54,504.18,1021,507.74Z" transform="translate(9.13 -251.43)"/><path class="cls-3" d="M893.14,503.6c12.92.17,15.2.22,15.2.22h4.25c3,18.5,13.22,29.81,32.59,32.19v19.57c-29.88-4.09-46.33-20.46-52-49.08-1.53.18-3.81-1.48-4.53-1.45" transform="translate(9.13 -251.43)"/><path class="cls-3" d="M875.34,506.53" transform="translate(9.13 -251.43)"/><path class="cls-3" d="M1009,544.57v14.21H995.56V544.57Z" transform="translate(9.13 -251.43)"/><path class="cls-3" d="M900.65,455.43H888.13v-13.2h12.52Z" transform="translate(9.13 -251.43)"/><path class="cls-3" d="M1008.85,516.38v21.23l-3.47-.22c0-.86-.1-1.71-.1-2.55q0-7.83,0-15.66C1005.29,516.2,1005.36,516.16,1008.85,516.38Z" transform="translate(9.13 -251.43)"/><path class="cls-3" d="M971.83,558.22v-3.53h17.72c-.13,1.34-.24,2.45-.35,3.53Z" transform="translate(9.13 -251.43)"/><rect class="cls-3" x="882.76" y="468" width="14.17" height="3.91" transform="translate(1368.93 -671.33) rotate(90)"/><path class="cls-3" d="M935.36,447.55c-23.38,6.39-36.58,21.95-41.47,44.87-.13.66-.27,1.31-.39,2a3.91,3.91,0,0,1-.35,1.08H874.46V498h38c.29-18.5,16.85-32.82,32.64-32.49v-20S938.49,446.7,935.36,447.55Z" transform="translate(9.13 -251.43)"/><rect class="cls-3" x="914.53" y="246.14" width="18.68" height="2.91"/></svg>